<?xml version="1.0" standalone="no"?>
<!DOCTYPE svg PUBLIC "-//W3C//DTD SVG 20010904//EN"
 "http://www.w3.org/TR/2001/REC-SVG-20010904/DTD/svg10.dtd">
<svg version="1.0" xmlns="http://www.w3.org/2000/svg"
 width="16.000000pt" height="16.000000pt" viewBox="0 0 16.000000 16.000000"
 preserveAspectRatio="xMidYMid meet">

<g transform="translate(0.000000,16.000000) scale(0.100000,-0.100000)"
fill="#000000" stroke="none">
<path d="M48 149 c-10 -5 -18 -18 -18 -28 0 -32 31 -81 50 -81 20 0 50 49 50
81 0 32 -48 48 -82 28z m60 -11 c16 -16 15 -43 -2 -57 -11 -9 -15 -9 -20 1 -5
11 -7 11 -12 0 -8 -17 -34 4 -34 27 0 36 43 54 68 29z m-15 -85 c-7 -2 -19 -2
-25 0 -7 3 -2 5 12 5 14 0 19 -2 13 -5z"/>
<path d="M50 111 c0 -6 5 -13 10 -16 6 -3 10 1 10 9 0 9 -4 16 -10 16 -5 0
-10 -4 -10 -9z"/>
<path d="M90 104 c0 -8 5 -12 10 -9 6 3 10 10 10 16 0 5 -4 9 -10 9 -5 0 -10
-7 -10 -16z"/>
<path d="M6 65 c-5 -15 12 -65 23 -65 12 1 45 30 34 30 -7 0 -15 -5 -18 -10
-7 -12 -25 -4 -25 11 0 6 5 7 10 4 6 -3 10 -1 10 5 0 7 -7 9 -16 6 -10 -4 -14
-2 -11 6 2 7 10 12 16 10 7 -1 10 2 6 8 -9 15 -22 12 -29 -5z"/>
<path d="M125 70 c-4 -6 -1 -9 6 -8 6 2 14 -3 16 -10 3 -8 -1 -10 -11 -6 -9 3
-16 1 -16 -6 0 -6 5 -8 10 -5 6 3 10 2 10 -4 0 -15 -18 -23 -25 -11 -3 5 -11
10 -18 10 -11 0 22 -29 34 -30 11 0 28 50 23 65 -7 17 -20 20 -29 5z"/>
</g>
</svg>
