<?xml version="1.0" standalone="no"?>
<!DOCTYPE svg PUBLIC "-//W3C//DTD SVG 20010904//EN"
 "http://www.w3.org/TR/2001/REC-SVG-20010904/DTD/svg10.dtd">
<svg version="1.0" xmlns="http://www.w3.org/2000/svg"
 width="16.000000pt" height="16.000000pt" viewBox="0 0 16.000000 16.000000"
 preserveAspectRatio="xMidYMid meet">

<g transform="translate(0.000000,16.000000) scale(0.100000,-0.100000)"
fill="#000000" stroke="none">
<path d="M68 143 c6 -2 18 -2 25 0 6 3 1 5 -13 5 -14 0 -19 -2 -12 -5z"/>
<path d="M32 128 c-25 -25 -4 -103 31 -114 27 -9 51 4 65 33 17 38 15 68 -5
84 -15 11 -16 11 -5 -1 15 -18 16 -62 0 -78 -15 -15 -61 -15 -76 0 -7 7 -12
24 -12 38 0 14 5 31 12 38 7 7 10 12 7 12 -3 0 -10 -5 -17 -12z m61 -105 c-7
-2 -19 -2 -25 0 -7 3 -2 5 12 5 14 0 19 -2 13 -5z"/>
<path d="M47 93 c-12 -11 -8 -23 7 -23 8 0 17 -6 20 -12 5 -10 7 -10 12 0 3 6
12 12 21 12 17 0 13 22 -5 28 -7 2 -12 -3 -12 -12 0 -9 -4 -16 -10 -16 -5 0
-10 7 -10 15 0 16 -12 20 -23 8z"/>
</g>
</svg>
